<svg width="107" height="31" xmlns="http://www.w3.org/2000/svg" fill="none">

 <g>
  <title>Layer 1</title>
  <path id="svg_4" fill="#333333" d="m17.4432,19.2799l0.54,1.4l-3.68,2.26c-0.7067,0.1867 -1.3867,0.3067 -2.04,0.36c-0.64,0.0534 -1.3333,0.08 -2.08,0.08c-1.68,0 -3.1667,-0.34 -4.46,-1.02c-1.2933,-0.68 -2.3,-1.6133 -3.02,-2.8c-0.7067,-1.2 -1.06,-2.56 -1.06,-4.08c0,-1.56 0.5267,-3 1.58,-4.32c1.0667,-1.33329 2.38,-2.37995 3.94,-3.13995c1.5733,-0.77334 3.0667,-1.16 4.48,-1.16c0.88,0 1.9067,0.1 3.08,0.3c1.1867,0.2 2.0533,0.41333 2.6,0.64l0,5.27995l-2.56,0c-0.5467,-1.2266 -1.1867,-2.12 -1.92,-2.68c-0.72,-0.57329 -1.5067,-0.85995 -2.36,-0.85995c-0.76,0 -1.46,0.22 -2.1,0.65995c-0.6267,0.4267 -1.1267,1.02 -1.5,1.78c-0.36,0.76 -0.54,1.6067 -0.54,2.54c0,1.1334 0.18,2.1667 0.54,3.1c0.36,0.92 0.9133,1.66 1.66,2.22c0.7467,0.56 1.6667,0.84 2.76,0.84l0.62,0c0.52,0 0.9267,-0.0133 1.22,-0.04l0,-3.42l-3.28,-0.74l0.8,-1.6l8.68,0l0,1.42l-1.9,1.66l0,1.32z"/>
  <path id="svg_5" fill="#333333" d="m27.6624,11.9399c1.04,0 1.9667,0.2334 2.78,0.7c0.8267,0.4534 1.4667,1.0867 1.92,1.9c0.4667,0.8 0.7,1.6934 0.7,2.68c0,1.0667 -0.3533,2.06 -1.06,2.98c-0.7066,0.92 -1.5933,1.6534 -2.66,2.2c-1.0666,0.5334 -2.1,0.8 -3.1,0.8c-1.04,0 -1.9733,-0.2266 -2.8,-0.68c-0.8133,-0.4666 -1.4533,-1.1 -1.92,-1.9c-0.4533,-0.8133 -0.68,-1.7133 -0.68,-2.7c0,-1.0666 0.3534,-2.06 1.06,-2.98c0.7067,-0.92 1.5934,-1.6466 2.66,-2.18c1.0667,-0.5466 2.1,-0.82 3.1,-0.82zm-1.16,2.68c-0.4266,0 -0.76,0.2 -1,0.6c-0.2266,0.3867 -0.34,0.9667 -0.34,1.74c0,1.04 0.1934,1.8934 0.58,2.56c0.4,0.6667 0.9534,1 1.66,1c0.4267,0 0.7534,-0.2 0.98,-0.6c0.24,-0.4 0.36,-0.9866 0.36,-1.76c0,-1.04 -0.2,-1.8866 -0.6,-2.54c-0.3866,-0.6666 -0.9333,-1 -1.64,-1z"/>
  <path id="svg_6" fill="#333333" d="m55.5612,23.0799l-7.08,0l0,-1.12l1.88,-1.48l0,-9.6l-4.96,12.18l-1.74,0l-5.04,-12.28l0,10.08l2.22,0.88l-0.64,1.3l-5.18,0l0,-1.12l1.88,-1.48l0,-10.89995l-2.22,-0.94l0.66,-1.3l5.62,0l4.56,11.11995l4.52,-11.11995l5.84,0l0,1.12l-1.9,1.48l0,11.21995l2.22,0.66l-0.64,1.3z"/>
  <path id="svg_7" fill="#333333" d="m74.6142,22.9999l-7.44,0l0,-1.12l2.18,-1.3l-1.22,-2.98l-6.1796,0l-1.1,2.68l3.0596,1.42l-0.6396,1.3l-6.46,0l-0.6134,-1.22l2.7734,-1.52l5.1196,-12.33995l3.46,-1.02l5.68,13.77995l2.881,1.24l-1.501,1.08zm-9.54,-12.94l-2.4796,6l4.9196,0l-2.44,-6z"/>
  <path id="svg_8" fill="#333333" d="m96.6552,23.0799l-7.08,0l0,-1.12l1.88,-1.48l0,-9.6l-4.96,12.18l-1.74,0l-5.04,-12.28l0,10.08l2.22,0.88l-0.64,1.3l-5.18,0l0,-1.12l1.88,-1.48l0,-10.89995l-2.22,-0.94l0.66,-1.3l5.62,0l4.56,11.11995l4.52,-11.11995l5.84,0l0,1.12l-1.9,1.48l0,11.21995l2.22,0.66l-0.64,1.3z"/>
  <path id="svg_9" fill="#333333" d="m105.1082,22.9999l-6.32,0l-1.493,-1.22l3.273,-1.4l0,-4.64l-1.78,-1.18l0,-1.12l3.92,-1.6l1.26,0l0,9.26l1.8,0.6l-0.66,1.3zm-2.86,-17.17995c0.573,0 1.04,0.18666 1.4,0.56c0.373,0.36 0.56,0.81333 0.56,1.36c0,0.38666 -0.133,0.74666 -0.4,1.08c-0.267,0.33333 -0.6,0.6 -1,0.8c-0.4,0.2 -0.787,0.3 -1.16,0.3c-0.56,0 -1.027,-0.18 -1.4,-0.54c-0.36,-0.37334 -0.54,-0.83334 -0.54,-1.38c0,-0.38667 0.133,-0.74667 0.4,-1.08c0.267,-0.33334 0.593,-0.6 0.98,-0.8c0.4,-0.2 0.787,-0.3 1.16,-0.3z"/>
 </g>
</svg>