<svg xmlns="http://www.w3.org/2000/svg" width="1000" height="520" viewBox="0 0 1000 520">
<rect width="100%" height="100%" fill="#0b1220"/>
<text x="90" y="38" fill="#f8fafc" font-size="25" font-family="sans-serif" font-weight="700">4K 随机写稳定性（QD32，10 分钟）</text>
<line x1="90" y1="440.0" x2="965" y2="440.0" stroke="#334155" stroke-width="1"/>
<text x="78" y="445.0" text-anchor="end" fill="#94a3b8" font-size="14" font-family="sans-serif">37,838</text>
<line x1="90" y1="366.0" x2="965" y2="366.0" stroke="#334155" stroke-width="1"/>
<text x="78" y="371.0" text-anchor="end" fill="#94a3b8" font-size="14" font-family="sans-serif">40,209</text>
<line x1="90" y1="292.0" x2="965" y2="292.0" stroke="#334155" stroke-width="1"/>
<text x="78" y="297.0" text-anchor="end" fill="#94a3b8" font-size="14" font-family="sans-serif">42,580</text>
<line x1="90" y1="218.0" x2="965" y2="218.0" stroke="#334155" stroke-width="1"/>
<text x="78" y="223.0" text-anchor="end" fill="#94a3b8" font-size="14" font-family="sans-serif">44,952</text>
<line x1="90" y1="144.0" x2="965" y2="144.0" stroke="#334155" stroke-width="1"/>
<text x="78" y="149.0" text-anchor="end" fill="#94a3b8" font-size="14" font-family="sans-serif">47,323</text>
<line x1="90" y1="70.0" x2="965" y2="70.0" stroke="#334155" stroke-width="1"/>
<text x="78" y="75.0" text-anchor="end" fill="#94a3b8" font-size="14" font-family="sans-serif">49,694</text>
<polyline fill="none" stroke="#a78bfa" stroke-width="4" points="90.0,122.9 97.4,372.4 104.7,371.9 112.1,372.5 119.4,372.5 126.8,372.4 134.1,372.5 141.5,372.3 148.8,372.5 156.2,372.5 163.5,372.3 170.9,372.8 178.2,387.1 185.6,357.4 192.9,372.5 200.3,372.0 207.6,372.4 215.0,372.4 222.4,372.0 229.7,372.8 237.1,372.3 244.4,372.5 251.8,372.4 259.1,371.7 266.5,372.4 273.8,372.2 281.2,372.1 288.5,372.5 295.9,372.1 303.2,372.5 310.6,372.4 317.9,371.9 325.3,372.5 332.6,372.1 340.0,372.5 347.4,372.4 354.7,372.2 362.1,372.8 369.4,372.3 376.8,372.1 384.1,372.3 391.5,372.0 398.8,372.5 406.2,372.4 413.5,372.0 420.9,372.4 428.2,372.3 435.6,372.3 442.9,372.5 450.3,372.3 457.6,372.8 465.0,372.4 472.4,372.2 479.7,372.4 487.1,372.3 494.4,372.4 501.8,372.3 509.1,371.9 516.5,372.4 523.8,372.5 531.2,372.1 538.5,372.4 545.9,372.2 553.2,372.8 560.6,372.4 567.9,372.0 575.3,372.4 582.6,372.0 590.0,372.4 597.4,372.4 604.7,372.2 612.1,372.5 619.4,372.4 626.8,372.0 634.1,372.4 641.5,371.6 648.8,372.5 656.2,372.8 663.5,372.2 670.9,372.4 678.2,372.4 685.6,371.9 692.9,372.5 700.3,372.0 707.6,372.5 715.0,372.8 722.4,372.0 729.7,372.4 737.1,371.8 744.4,372.4 751.8,372.4 759.1,371.9 766.5,372.4 773.8,372.3 781.2,372.2 788.5,372.4 795.9,372.1 803.2,372.4 810.6,372.5 817.9,372.0 825.3,372.4 832.6,372.5 840.0,372.3 847.4,372.7 854.7,372.1 862.1,372.4 869.4,372.4 876.8,372.3 884.1,372.4 891.5,371.9 898.8,372.5 906.2,372.5 913.5,371.6 920.9,372.5 928.2,372.5 935.6,372.0 942.9,372.8 950.3,372.1 957.6,372.4 965.0,372.4"/>
<circle cx="90.0" cy="122.9" r="3" fill="#a78bfa"/>
<circle cx="97.4" cy="372.4" r="3" fill="#a78bfa"/>
<circle cx="104.7" cy="371.9" r="3" fill="#a78bfa"/>
<circle cx="112.1" cy="372.5" r="3" fill="#a78bfa"/>
<circle cx="119.4" cy="372.5" r="3" fill="#a78bfa"/>
<circle cx="126.8" cy="372.4" r="3" fill="#a78bfa"/>
<circle cx="134.1" cy="372.5" r="3" fill="#a78bfa"/>
<circle cx="141.5" cy="372.3" r="3" fill="#a78bfa"/>
<circle cx="148.8" cy="372.5" r="3" fill="#a78bfa"/>
<circle cx="156.2" cy="372.5" r="3" fill="#a78bfa"/>
<circle cx="163.5" cy="372.3" r="3" fill="#a78bfa"/>
<circle cx="170.9" cy="372.8" r="3" fill="#a78bfa"/>
<circle cx="178.2" cy="387.1" r="3" fill="#a78bfa"/>
<circle cx="185.6" cy="357.4" r="3" fill="#a78bfa"/>
<circle cx="192.9" cy="372.5" r="3" fill="#a78bfa"/>
<circle cx="200.3" cy="372.0" r="3" fill="#a78bfa"/>
<circle cx="207.6" cy="372.4" r="3" fill="#a78bfa"/>
<circle cx="215.0" cy="372.4" r="3" fill="#a78bfa"/>
<circle cx="222.4" cy="372.0" r="3" fill="#a78bfa"/>
<circle cx="229.7" cy="372.8" r="3" fill="#a78bfa"/>
<circle cx="237.1" cy="372.3" r="3" fill="#a78bfa"/>
<circle cx="244.4" cy="372.5" r="3" fill="#a78bfa"/>
<circle cx="251.8" cy="372.4" r="3" fill="#a78bfa"/>
<circle cx="259.1" cy="371.7" r="3" fill="#a78bfa"/>
<circle cx="266.5" cy="372.4" r="3" fill="#a78bfa"/>
<circle cx="273.8" cy="372.2" r="3" fill="#a78bfa"/>
<circle cx="281.2" cy="372.1" r="3" fill="#a78bfa"/>
<circle cx="288.5" cy="372.5" r="3" fill="#a78bfa"/>
<circle cx="295.9" cy="372.1" r="3" fill="#a78bfa"/>
<circle cx="303.2" cy="372.5" r="3" fill="#a78bfa"/>
<circle cx="310.6" cy="372.4" r="3" fill="#a78bfa"/>
<circle cx="317.9" cy="371.9" r="3" fill="#a78bfa"/>
<circle cx="325.3" cy="372.5" r="3" fill="#a78bfa"/>
<circle cx="332.6" cy="372.1" r="3" fill="#a78bfa"/>
<circle cx="340.0" cy="372.5" r="3" fill="#a78bfa"/>
<circle cx="347.4" cy="372.4" r="3" fill="#a78bfa"/>
<circle cx="354.7" cy="372.2" r="3" fill="#a78bfa"/>
<circle cx="362.1" cy="372.8" r="3" fill="#a78bfa"/>
<circle cx="369.4" cy="372.3" r="3" fill="#a78bfa"/>
<circle cx="376.8" cy="372.1" r="3" fill="#a78bfa"/>
<circle cx="384.1" cy="372.3" r="3" fill="#a78bfa"/>
<circle cx="391.5" cy="372.0" r="3" fill="#a78bfa"/>
<circle cx="398.8" cy="372.5" r="3" fill="#a78bfa"/>
<circle cx="406.2" cy="372.4" r="3" fill="#a78bfa"/>
<circle cx="413.5" cy="372.0" r="3" fill="#a78bfa"/>
<circle cx="420.9" cy="372.4" r="3" fill="#a78bfa"/>
<circle cx="428.2" cy="372.3" r="3" fill="#a78bfa"/>
<circle cx="435.6" cy="372.3" r="3" fill="#a78bfa"/>
<circle cx="442.9" cy="372.5" r="3" fill="#a78bfa"/>
<circle cx="450.3" cy="372.3" r="3" fill="#a78bfa"/>
<circle cx="457.6" cy="372.8" r="3" fill="#a78bfa"/>
<circle cx="465.0" cy="372.4" r="3" fill="#a78bfa"/>
<circle cx="472.4" cy="372.2" r="3" fill="#a78bfa"/>
<circle cx="479.7" cy="372.4" r="3" fill="#a78bfa"/>
<circle cx="487.1" cy="372.3" r="3" fill="#a78bfa"/>
<circle cx="494.4" cy="372.4" r="3" fill="#a78bfa"/>
<circle cx="501.8" cy="372.3" r="3" fill="#a78bfa"/>
<circle cx="509.1" cy="371.9" r="3" fill="#a78bfa"/>
<circle cx="516.5" cy="372.4" r="3" fill="#a78bfa"/>
<circle cx="523.8" cy="372.5" r="3" fill="#a78bfa"/>
<circle cx="531.2" cy="372.1" r="3" fill="#a78bfa"/>
<circle cx="538.5" cy="372.4" r="3" fill="#a78bfa"/>
<circle cx="545.9" cy="372.2" r="3" fill="#a78bfa"/>
<circle cx="553.2" cy="372.8" r="3" fill="#a78bfa"/>
<circle cx="560.6" cy="372.4" r="3" fill="#a78bfa"/>
<circle cx="567.9" cy="372.0" r="3" fill="#a78bfa"/>
<circle cx="575.3" cy="372.4" r="3" fill="#a78bfa"/>
<circle cx="582.6" cy="372.0" r="3" fill="#a78bfa"/>
<circle cx="590.0" cy="372.4" r="3" fill="#a78bfa"/>
<circle cx="597.4" cy="372.4" r="3" fill="#a78bfa"/>
<circle cx="604.7" cy="372.2" r="3" fill="#a78bfa"/>
<circle cx="612.1" cy="372.5" r="3" fill="#a78bfa"/>
<circle cx="619.4" cy="372.4" r="3" fill="#a78bfa"/>
<circle cx="626.8" cy="372.0" r="3" fill="#a78bfa"/>
<circle cx="634.1" cy="372.4" r="3" fill="#a78bfa"/>
<circle cx="641.5" cy="371.6" r="3" fill="#a78bfa"/>
<circle cx="648.8" cy="372.5" r="3" fill="#a78bfa"/>
<circle cx="656.2" cy="372.8" r="3" fill="#a78bfa"/>
<circle cx="663.5" cy="372.2" r="3" fill="#a78bfa"/>
<circle cx="670.9" cy="372.4" r="3" fill="#a78bfa"/>
<circle cx="678.2" cy="372.4" r="3" fill="#a78bfa"/>
<circle cx="685.6" cy="371.9" r="3" fill="#a78bfa"/>
<circle cx="692.9" cy="372.5" r="3" fill="#a78bfa"/>
<circle cx="700.3" cy="372.0" r="3" fill="#a78bfa"/>
<circle cx="707.6" cy="372.5" r="3" fill="#a78bfa"/>
<circle cx="715.0" cy="372.8" r="3" fill="#a78bfa"/>
<circle cx="722.4" cy="372.0" r="3" fill="#a78bfa"/>
<circle cx="729.7" cy="372.4" r="3" fill="#a78bfa"/>
<circle cx="737.1" cy="371.8" r="3" fill="#a78bfa"/>
<circle cx="744.4" cy="372.4" r="3" fill="#a78bfa"/>
<circle cx="751.8" cy="372.4" r="3" fill="#a78bfa"/>
<circle cx="759.1" cy="371.9" r="3" fill="#a78bfa"/>
<circle cx="766.5" cy="372.4" r="3" fill="#a78bfa"/>
<circle cx="773.8" cy="372.3" r="3" fill="#a78bfa"/>
<circle cx="781.2" cy="372.2" r="3" fill="#a78bfa"/>
<circle cx="788.5" cy="372.4" r="3" fill="#a78bfa"/>
<circle cx="795.9" cy="372.1" r="3" fill="#a78bfa"/>
<circle cx="803.2" cy="372.4" r="3" fill="#a78bfa"/>
<circle cx="810.6" cy="372.5" r="3" fill="#a78bfa"/>
<circle cx="817.9" cy="372.0" r="3" fill="#a78bfa"/>
<circle cx="825.3" cy="372.4" r="3" fill="#a78bfa"/>
<circle cx="832.6" cy="372.5" r="3" fill="#a78bfa"/>
<circle cx="840.0" cy="372.3" r="3" fill="#a78bfa"/>
<circle cx="847.4" cy="372.7" r="3" fill="#a78bfa"/>
<circle cx="854.7" cy="372.1" r="3" fill="#a78bfa"/>
<circle cx="862.1" cy="372.4" r="3" fill="#a78bfa"/>
<circle cx="869.4" cy="372.4" r="3" fill="#a78bfa"/>
<circle cx="876.8" cy="372.3" r="3" fill="#a78bfa"/>
<circle cx="884.1" cy="372.4" r="3" fill="#a78bfa"/>
<circle cx="891.5" cy="371.9" r="3" fill="#a78bfa"/>
<circle cx="898.8" cy="372.5" r="3" fill="#a78bfa"/>
<circle cx="906.2" cy="372.5" r="3" fill="#a78bfa"/>
<circle cx="913.5" cy="371.6" r="3" fill="#a78bfa"/>
<circle cx="920.9" cy="372.5" r="3" fill="#a78bfa"/>
<circle cx="928.2" cy="372.5" r="3" fill="#a78bfa"/>
<circle cx="935.6" cy="372.0" r="3" fill="#a78bfa"/>
<circle cx="942.9" cy="372.8" r="3" fill="#a78bfa"/>
<circle cx="950.3" cy="372.1" r="3" fill="#a78bfa"/>
<circle cx="957.6" cy="372.4" r="3" fill="#a78bfa"/>
<circle cx="965.0" cy="372.4" r="3" fill="#a78bfa"/>
<text x="90.0" y="468" text-anchor="middle" fill="#94a3b8" font-size="14" font-family="sans-serif">5</text>
<text x="265.0" y="468" text-anchor="middle" fill="#94a3b8" font-size="14" font-family="sans-serif">124</text>
<text x="440.0" y="468" text-anchor="middle" fill="#94a3b8" font-size="14" font-family="sans-serif">243</text>
<text x="615.0" y="468" text-anchor="middle" fill="#94a3b8" font-size="14" font-family="sans-serif">362</text>
<text x="790.0" y="468" text-anchor="middle" fill="#94a3b8" font-size="14" font-family="sans-serif">481</text>
<text x="965.0" y="468" text-anchor="middle" fill="#94a3b8" font-size="14" font-family="sans-serif">600</text>
<text x="500.0" y="502" text-anchor="middle" fill="#cbd5e1" font-size="15" font-family="sans-serif">秒</text>
<text transform="translate(22 260.0) rotate(-90)" text-anchor="middle" fill="#cbd5e1" font-size="15" font-family="sans-serif">IOPS</text>
<text x="965" y="40" text-anchor="end" fill="#94a3b8" font-size="14" font-family="sans-serif">前 30 秒 41,338；末 30 秒 40,004</text>
</svg>